<?xml version="1.0" standalone="no"?>
<!DOCTYPE svg PUBLIC "-//W3C//DTD SVG 20010904//EN"
 "http://www.w3.org/TR/2001/REC-SVG-20010904/DTD/svg10.dtd">
<svg version="1.0" xmlns="http://www.w3.org/2000/svg"
 width="228.000000pt" height="228.000000pt" viewBox="0 0 228.000000 228.000000"
 preserveAspectRatio="xMidYMid meet">
<metadata>
Created by potrace 1.11, written by Peter Selinger 2001-2013
</metadata>
<g transform="translate(0.000000,228.000000) scale(0.100000,-0.100000)"
fill="#000000" stroke="none">
<path d="M1556 1952 c-5 -8 -9 -44 -31 -287 -7 -74 -12 -128 -20 -185 -2 -19
-7 -78 -11 -130 -7 -121 -6 -114 -29 -120 -11 -3 -24 -16 -30 -28 -9 -20 -17
-22 -77 -22 l-67 0 -3 33 c-2 20 -8 32 -18 32 -10 0 -16 -12 -18 -32 -3 -27
-8 -33 -27 -33 -21 0 -24 5 -27 48 -2 34 -7 47 -18 47 -11 0 -16 -13 -18 -47
-3 -46 -5 -48 -33 -48 -29 0 -29 1 -30 58 0 31 -2 120 -4 197 -2 77 -4 179 -4
227 -1 64 -5 91 -17 102 -13 14 -52 16 -267 16 -140 0 -259 -4 -267 -10 -9 -5
-17 -31 -20 -66 -5 -53 -7 -58 -35 -67 -54 -17 -109 -61 -140 -111 l-30 -49 0
-551 0 -551 875 0 875 0 0 400 0 400 -55 3 c-46 2 -57 7 -65 25 -6 13 -21 23
-37 25 -32 4 -35 12 -43 122 -3 47 -8 96 -10 110 -2 14 -7 62 -10 107 -3 46
-8 91 -10 101 -2 10 -6 76 -10 147 -3 71 -9 133 -11 137 -7 11 -251 10 -258 0z
m-565 -309 c0 -21 2 -134 5 -250 l4 -213 -89 0 -89 0 -4 148 c-3 140 -4 149
-31 194 -28 49 -94 102 -140 114 -17 4 -27 13 -27 25 0 18 10 19 185 19 l185
0 1 -37z"/>
</g>
</svg>
