<?xml version="1.0" standalone="no"?>
<!DOCTYPE svg PUBLIC "-//W3C//DTD SVG 20010904//EN"
 "http://www.w3.org/TR/2001/REC-SVG-20010904/DTD/svg10.dtd">
<svg version="1.0" xmlns="http://www.w3.org/2000/svg"
 width="214.000000pt" height="214.000000pt" viewBox="0 0 214.000000 214.000000"
 preserveAspectRatio="xMidYMid meet">
<g transform="translate(0.000000,214.000000) scale(0.100000,-0.100000)"
fill="#7C6E8A" stroke="none">
<path d="M1436 1882 c-5 -8 -21 -165 -56 -547 -5 -55 -9 -115 -10 -133 0 -26
-5 -35 -26 -42 -14 -6 -28 -19 -31 -30 -5 -18 -14 -20 -74 -20 l-68 0 -3 33
c-2 20 -8 32 -18 32 -10 0 -16 -12 -18 -32 -3 -27 -8 -33 -27 -33 -21 0 -24 5
-27 48 -2 34 -7 47 -18 47 -11 0 -16 -13 -18 -47 -3 -45 -5 -48 -31 -48 l-29
0 -7 286 c-6 228 -10 288 -22 300 -12 11 -60 14 -266 14 -140 0 -259 -4 -267
-10 -9 -5 -17 -31 -20 -66 -5 -53 -7 -58 -35 -67 -53 -17 -114 -66 -142 -115
l-28 -47 0 -550 0 -550 875 0 875 0 0 400 0 400 -55 3 c-46 2 -57 7 -65 25 -6
13 -22 24 -40 27 l-30 5 -18 195 c-9 107 -23 269 -30 360 l-12 165 -127 3
c-69 1 -129 -1 -132 -6z m226 -92 l3 -60 -102 0 -103 0 0 38 c0 81 1 82 105
82 l93 0 4 -60z m-789 -347 c4 -91 7 -204 7 -250 l0 -83 -89 0 -89 0 -4 148
c-3 140 -4 149 -31 194 -28 49 -94 102 -140 114 -17 4 -27 13 -27 25 0 18 10
19 183 19 l184 0 6 -167z m807 103 c0 -18 3 -48 6 -65 l7 -31 -133 0 -132 0 6
31 c3 17 6 47 6 65 l0 34 120 0 120 0 0 -34z m24 -272 c3 -9 6 -38 6 -65 l0
-49 -150 0 -150 0 0 49 c0 84 -6 81 150 81 116 0 139 -2 144 -16z m-1235 -312
c1 -26 21 -60 68 -116 37 -44 43 -88 18 -135 -17 -34 -103 -69 -118 -48 -7 9
-10 9 -14 -1 -8 -19 -60 16 -78 54 -25 53 -19 102 24 191 43 88 80 127 93 96
3 -10 7 -28 7 -41z m741 -172 l0 -80 -160 0 -160 0 0 80 0 80 160 0 160 0 0
-80z m530 0 l0 -80 -160 0 -160 0 0 80 0 80 160 0 160 0 0 -80z"/>
</g>
</svg>
