<svg id="b7941301-8f37-4054-a4d9-2beb80063dcb" data-name="Layer 1" xmlns="http://www.w3.org/2000/svg" width="1010" height="770.56348" viewBox="0 0 1010 770.56348"><circle cx="144.27165" cy="391" r="64" fill="#ff6584"/><path d="M370.33659,817.21826h-.06494a8.50958,8.50958,0,0,1-8.5-8.5v-499a8.50958,8.50958,0,0,1,8.5-8.5h420a8.5095,8.5095,0,0,1,8.5,8.5v388a8.50919,8.50919,0,0,1-8.43408,8.49951Z" transform="translate(-95 -64.71826)" fill="#f2f2f2"/><path d="M680.77165,230.71826h-195v-113a9.01032,9.01032,0,0,1,9-9h177a9.01031,9.01031,0,0,1,9,9Zm-193-2h191v-111a7.00786,7.00786,0,0,0-7-7h-177a7.00787,7.00787,0,0,0-7,7Z" transform="translate(-95 -64.71826)" fill="#3f3d56"/><path d="M446.27165,87h84a8,8,0,0,1,8,8V215a0,0,0,0,1,0,0h-100a0,0,0,0,1,0,0V95A8,8,0,0,1,446.27165,87Z" fill="#e6e6e6"/><path d="M557.77165,110.71826h-41v-41a5.00573,5.00573,0,0,1,5-5h31a5.00573,5.00573,0,0,1,5,5Zm-39-2h37v-39a3.00328,3.00328,0,0,0-3-3h-31a3.00328,3.00328,0,0,0-3,3Z" transform="translate(-95 -64.71826)" fill="#3f3d56"/><path d="M894.68181,713.55811c-.39868,0-.78662,0-1.1853-.01026a101.52227,101.52227,0,0,1-66.89453-26.147q-1.0188-.92726-2.02076-1.87891l-.30957-.29541V493.57422l.09546-.20264c.66187-1.40332,1.3335-2.78662,2.00489-4.16992,20.80029-42.22949,45.05908-65.4834,68.30981-65.4834,33.52954,0,59.53345,45.99365,72.04956,73.40967,17.40479,38.124,29.5603,85.36426,29.5603,114.88037a101.57614,101.57614,0,0,1-100.449,101.54C895.46916,713.55811,895.07024,713.55811,894.68181,713.55811Zm-68.41016-29.189c.554.52344,1.11353,1.04,1.6731,1.54981a99.531,99.531,0,0,0,65.58789,25.62939c.405.00977.78809-.001,1.17554.00977.363,0,.7351,0,1.0979-.00928,54.31176-.60254,98.48559-45.25635,98.48559-99.54053,0-29.25976-12.0813-76.15869-29.37964-114.0498-12.31689-26.9795-37.81909-72.24024-70.23022-72.24024-22.44849,0-46.06982,22.85742-66.51318,64.36182-.63355,1.30517-1.26929,2.61523-1.897,3.94238Z" transform="translate(-95 -64.71826)" fill="#3f3d56"/><path d="M894.677,834.80615a1.15059,1.15059,0,0,1-1.15052-1.15053V598.78743a1.15052,1.15052,0,1,1,2.301,0V833.65562A1.15059,1.15059,0,0,1,894.677,834.80615Z" transform="translate(-95 -64.71826)" fill="#ccc"/><path d="M297.677,834.80615a1.15059,1.15059,0,0,1-1.15052-1.15053V598.78743a1.15052,1.15052,0,1,1,2.301,0V833.65562A1.15059,1.15059,0,0,1,297.677,834.80615Z" transform="translate(-95 -64.71826)" fill="#ccc"/><path d="M894.6776,642.669a1.14786,1.14786,0,0,1-.86991-.39661L835.944,575.54217a1.15072,1.15072,0,0,1,1.73871-1.50781l57.8637,66.73025a1.15083,1.15083,0,0,1-.86879,1.90443Z" transform="translate(-95 -64.71826)" fill="#ccc"/><path d="M894.677,681.18005a1.15052,1.15052,0,0,1-.81345-1.964l32.87919-32.87975a1.1504,1.1504,0,0,1,1.6269,1.62691L895.4905,680.843A1.14633,1.14633,0,0,1,894.677,681.18005Z" transform="translate(-95 -64.71826)" fill="#ccc"/><path d="M1001.124,835.28174H915.11882v-1a43.00257,43.00257,0,1,1,86.00513,0Zm-83.99317-2H999.112a41.0028,41.0028,0,0,0-81.98121,0Z" transform="translate(-95 -64.71826)" fill="#3f3d56"/><path d="M958.12126,809.87469a1.13529,1.13529,0,0,0-1.13525,1.1352V823.0694l-11.74756-10.08289a1.13528,1.13528,0,1,0-1.479,1.72278L956.986,826.06146v7.0849a1.13526,1.13526,0,1,0,2.27051,0V811.00989A1.13529,1.13529,0,0,0,958.12126,809.87469Z" transform="translate(-95 -64.71826)" fill="#3f3d56"/><path d="M280.124,835.28174H194.11882v-1a43.00257,43.00257,0,1,1,86.00513,0Zm-83.99317-2H278.112a41.0028,41.0028,0,0,0-81.98121,0Z" transform="translate(-95 -64.71826)" fill="#3f3d56"/><path d="M237.12126,809.87469a1.13529,1.13529,0,0,0-1.13525,1.1352V823.0694l-11.74756-10.08289a1.13528,1.13528,0,1,0-1.479,1.72278L235.986,826.06146v7.0849a1.13526,1.13526,0,1,0,2.27051,0V811.00989A1.13529,1.13529,0,0,0,237.12126,809.87469Z" transform="translate(-95 -64.71826)" fill="#3f3d56"/><path d="M298.68181,713.55811c-.39856,0-.78662,0-1.18518-.01026A101.58142,101.58142,0,0,1,197.06169,612.0083c0-29.51709,12.15613-76.75732,29.56153-114.88037,12.51709-27.416,38.52319-73.40967,72.05859-73.40967,13.81311,0,27.72241,7.87305,41.34167,23.40088.6753.76563,1.35218,1.5542,2.01941,2.36231l.22876.27734V703.74512l-.564.27295c-.673.32617-1.35584.63232-2.0387.92773a100.608,100.608,0,0,1-39.82654,8.60254C299.469,713.55811,299.07012,713.55811,298.68181,713.55811Zm0-287.83985c-32.417,0-57.92151,45.26074-70.23926,72.24024-17.299,37.89013-29.38086,84.78906-29.38086,114.0498,0,54.2749,44.17407,98.92822,98.47119,99.54.40455.01025.782.01318,1.1753.00977.363,0,.73523,0,1.0979-.00928a98.65569,98.65569,0,0,0,39.06128-8.43506c.47192-.20459.9403-.41211,1.40429-.62793V450.479c-.579-.69531-1.16455-1.375-1.75-2.03955C325.297,433.3623,311.8936,425.71826,298.68181,425.71826Z" transform="translate(-95 -64.71826)" fill="#3f3d56"/><path d="M298.6776,642.669a1.14786,1.14786,0,0,1-.86991-.39661L239.944,575.54217a1.15072,1.15072,0,0,1,1.73871-1.50781l57.8637,66.73025a1.15083,1.15083,0,0,1-.86879,1.90443Z" transform="translate(-95 -64.71826)" fill="#ccc"/><path d="M298.677,681.18005a1.15052,1.15052,0,0,1-.81345-1.964l32.87919-32.87975a1.1504,1.1504,0,0,1,1.6269,1.62691L299.4905,680.843A1.14633,1.14633,0,0,1,298.677,681.18005Z" transform="translate(-95 -64.71826)" fill="#ccc"/><path d="M389.03142,238.71826l.74023,1.46a4.42322,4.42322,0,0,1,.5,2.04v39.5h35v-39.5a4.42334,4.42334,0,0,1,.5-2.04l.74024-1.46Zm34.24023,3.5v37.5h-31v-37.5a6.27743,6.27743,0,0,0-.18017-1.5h31.36035A6.27693,6.27693,0,0,0,423.27165,242.21826Zm9.75977-3.5.74023,1.46a4.42322,4.42322,0,0,1,.5,2.04v39.5h35v-39.5a4.42334,4.42334,0,0,1,.5-2.04l.74024-1.46Zm34.24023,3.5v37.5h-31v-37.5a6.27743,6.27743,0,0,0-.18017-1.5h31.36035A6.27693,6.27693,0,0,0,467.27165,242.21826Zm9.75977-3.5.74023,1.46a4.42322,4.42322,0,0,1,.5,2.04v39.5h35v-39.5a4.42334,4.42334,0,0,1,.5-2.04l.74024-1.46Zm34.24023,3.5v37.5h-31v-37.5a6.27743,6.27743,0,0,0-.18017-1.5h31.36035A6.27693,6.27693,0,0,0,511.27165,242.21826Zm9.75977-3.5.74023,1.46a4.42322,4.42322,0,0,1,.5,2.04v39.5h35v-39.5a4.42334,4.42334,0,0,1,.5-2.04l.74024-1.46Zm34.24023,3.5v37.5h-31v-37.5a6.27743,6.27743,0,0,0-.18017-1.5h31.36035A6.27693,6.27693,0,0,0,555.27165,242.21826Zm9.75977-3.5.74023,1.46a4.42322,4.42322,0,0,1,.5,2.04v39.5h35v-39.5a4.42334,4.42334,0,0,1,.5-2.04l.74024-1.46Zm34.24023,3.5v37.5h-31v-37.5a6.27743,6.27743,0,0,0-.18017-1.5h31.36035A6.27693,6.27693,0,0,0,599.27165,242.21826Zm9.75977-3.5.74023,1.46a4.42322,4.42322,0,0,1,.5,2.04v39.5h35v-39.5a4.42334,4.42334,0,0,1,.5-2.04l.74024-1.46Zm34.24023,3.5v37.5h-31v-37.5a6.27743,6.27743,0,0,0-.18017-1.5h31.36035A6.27693,6.27693,0,0,0,643.27165,242.21826Zm9.75977-3.5.74023,1.46a4.42322,4.42322,0,0,1,.5,2.04v39.5h35v-39.5a4.42334,4.42334,0,0,1,.5-2.04l.74024-1.46Zm34.24023,3.5v37.5h-31v-37.5a6.27743,6.27743,0,0,0-.18017-1.5h31.36035A6.27693,6.27693,0,0,0,687.27165,242.21826Zm9.75977-3.5.74023,1.46a4.42322,4.42322,0,0,1,.5,2.04v39.5h35v-39.5a4.42334,4.42334,0,0,1,.5-2.04l.74024-1.46Zm34.24023,3.5v37.5h-31v-37.5a6.27743,6.27743,0,0,0-.18017-1.5h31.36035A6.27693,6.27693,0,0,0,731.27165,242.21826Zm9.75977-3.5.74023,1.46a4.42322,4.42322,0,0,1,.5,2.04v39.5h35v-39.5a4.42334,4.42334,0,0,1,.5-2.04l.74024-1.46Zm34.24023,3.5v37.5h-31v-37.5a6.27743,6.27743,0,0,0-.18017-1.5h31.36035A6.27693,6.27693,0,0,0,775.27165,242.21826Zm-34.24023-3.5.74023,1.46a4.42322,4.42322,0,0,1,.5,2.04v39.5h35v-39.5a4.42334,4.42334,0,0,1,.5-2.04l.74024-1.46Zm34.24023,3.5v37.5h-31v-37.5a6.27743,6.27743,0,0,0-.18017-1.5h31.36035A6.27693,6.27693,0,0,0,775.27165,242.21826Zm-78.24023-3.5.74023,1.46a4.42322,4.42322,0,0,1,.5,2.04v39.5h35v-39.5a4.42334,4.42334,0,0,1,.5-2.04l.74024-1.46Zm34.24023,3.5v37.5h-31v-37.5a6.27743,6.27743,0,0,0-.18017-1.5h31.36035A6.27693,6.27693,0,0,0,731.27165,242.21826Zm-78.24023-3.5.74023,1.46a4.42322,4.42322,0,0,1,.5,2.04v39.5h35v-39.5a4.42334,4.42334,0,0,1,.5-2.04l.74024-1.46Zm34.24023,3.5v37.5h-31v-37.5a6.27743,6.27743,0,0,0-.18017-1.5h31.36035A6.27693,6.27693,0,0,0,687.27165,242.21826Zm-78.24023-3.5.74023,1.46a4.42322,4.42322,0,0,1,.5,2.04v39.5h35v-39.5a4.42334,4.42334,0,0,1,.5-2.04l.74024-1.46Zm34.24023,3.5v37.5h-31v-37.5a6.27743,6.27743,0,0,0-.18017-1.5h31.36035A6.27693,6.27693,0,0,0,643.27165,242.21826Zm-78.24023-3.5.74023,1.46a4.42322,4.42322,0,0,1,.5,2.04v39.5h35v-39.5a4.42334,4.42334,0,0,1,.5-2.04l.74024-1.46Zm34.24023,3.5v37.5h-31v-37.5a6.27743,6.27743,0,0,0-.18017-1.5h31.36035A6.27693,6.27693,0,0,0,599.27165,242.21826Zm-78.24023-3.5.74023,1.46a4.42322,4.42322,0,0,1,.5,2.04v39.5h35v-39.5a4.42334,4.42334,0,0,1,.5-2.04l.74024-1.46Zm34.24023,3.5v37.5h-31v-37.5a6.27743,6.27743,0,0,0-.18017-1.5h31.36035A6.27693,6.27693,0,0,0,555.27165,242.21826Zm-78.24023-3.5.74023,1.46a4.42322,4.42322,0,0,1,.5,2.04v39.5h35v-39.5a4.42334,4.42334,0,0,1,.5-2.04l.74024-1.46Zm34.24023,3.5v37.5h-31v-37.5a6.27743,6.27743,0,0,0-.18017-1.5h31.36035A6.27693,6.27693,0,0,0,511.27165,242.21826Zm-78.24023-3.5.74023,1.46a4.42322,4.42322,0,0,1,.5,2.04v39.5h35v-39.5a4.42334,4.42334,0,0,1,.5-2.04l.74024-1.46Zm34.24023,3.5v37.5h-31v-37.5a6.27743,6.27743,0,0,0-.18017-1.5h31.36035A6.27693,6.27693,0,0,0,467.27165,242.21826Zm-78.24023-3.5.74023,1.46a4.42322,4.42322,0,0,1,.5,2.04v39.5h35v-39.5a4.42334,4.42334,0,0,1,.5-2.04l.74024-1.46Zm34.24023,3.5v37.5h-31v-37.5a6.27743,6.27743,0,0,0-.18017-1.5h31.36035A6.27693,6.27693,0,0,0,423.27165,242.21826Zm317.75977-3.5.74023,1.46a4.42322,4.42322,0,0,1,.5,2.04v39.5h35v-39.5a4.42334,4.42334,0,0,1,.5-2.04l.74024-1.46Zm34.24023,3.5v37.5h-31v-37.5a6.27743,6.27743,0,0,0-.18017-1.5h31.36035A6.27693,6.27693,0,0,0,775.27165,242.21826Zm-78.24023-3.5.74023,1.46a4.42322,4.42322,0,0,1,.5,2.04v39.5h35v-39.5a4.42334,4.42334,0,0,1,.5-2.04l.74024-1.46Zm34.24023,3.5v37.5h-31v-37.5a6.27743,6.27743,0,0,0-.18017-1.5h31.36035A6.27693,6.27693,0,0,0,731.27165,242.21826Zm-78.24023-3.5.74023,1.46a4.42322,4.42322,0,0,1,.5,2.04v39.5h35v-39.5a4.42334,4.42334,0,0,1,.5-2.04l.74024-1.46Zm34.24023,3.5v37.5h-31v-37.5a6.27743,6.27743,0,0,0-.18017-1.5h31.36035A6.27693,6.27693,0,0,0,687.27165,242.21826Zm-78.24023-3.5.74023,1.46a4.42322,4.42322,0,0,1,.5,2.04v39.5h35v-39.5a4.42334,4.42334,0,0,1,.5-2.04l.74024-1.46Zm34.24023,3.5v37.5h-31v-37.5a6.27743,6.27743,0,0,0-.18017-1.5h31.36035A6.27693,6.27693,0,0,0,643.27165,242.21826Zm-78.24023-3.5.74023,1.46a4.42322,4.42322,0,0,1,.5,2.04v39.5h35v-39.5a4.42334,4.42334,0,0,1,.5-2.04l.74024-1.46Zm34.24023,3.5v37.5h-31v-37.5a6.27743,6.27743,0,0,0-.18017-1.5h31.36035A6.27693,6.27693,0,0,0,599.27165,242.21826Zm-78.24023-3.5.74023,1.46a4.42322,4.42322,0,0,1,.5,2.04v39.5h35v-39.5a4.42334,4.42334,0,0,1,.5-2.04l.74024-1.46Zm34.24023,3.5v37.5h-31v-37.5a6.27743,6.27743,0,0,0-.18017-1.5h31.36035A6.27693,6.27693,0,0,0,555.27165,242.21826Zm-78.24023-3.5.74023,1.46a4.42322,4.42322,0,0,1,.5,2.04v39.5h35v-39.5a4.42334,4.42334,0,0,1,.5-2.04l.74024-1.46Zm34.24023,3.5v37.5h-31v-37.5a6.27743,6.27743,0,0,0-.18017-1.5h31.36035A6.27693,6.27693,0,0,0,511.27165,242.21826Zm-78.24023-3.5.74023,1.46a4.42322,4.42322,0,0,1,.5,2.04v39.5h35v-39.5a4.42334,4.42334,0,0,1,.5-2.04l.74024-1.46Zm34.24023,3.5v37.5h-31v-37.5a6.27743,6.27743,0,0,0-.18017-1.5h31.36035A6.27693,6.27693,0,0,0,467.27165,242.21826Zm-78.24023-3.5.74023,1.46a4.42322,4.42322,0,0,1,.5,2.04v39.5h35v-39.5a4.42334,4.42334,0,0,1,.5-2.04l.74024-1.46Zm34.24023,3.5v37.5h-31v-37.5a6.27743,6.27743,0,0,0-.18017-1.5h31.36035A6.27693,6.27693,0,0,0,423.27165,242.21826Zm317.75977-3.5.74023,1.46a4.42322,4.42322,0,0,1,.5,2.04v39.5h35v-39.5a4.42334,4.42334,0,0,1,.5-2.04l.74024-1.46Zm34.24023,3.5v37.5h-31v-37.5a6.27743,6.27743,0,0,0-.18017-1.5h31.36035A6.27693,6.27693,0,0,0,775.27165,242.21826Zm-78.24023-3.5.74023,1.46a4.42322,4.42322,0,0,1,.5,2.04v39.5h35v-39.5a4.42334,4.42334,0,0,1,.5-2.04l.74024-1.46Zm34.24023,3.5v37.5h-31v-37.5a6.27743,6.27743,0,0,0-.18017-1.5h31.36035A6.27693,6.27693,0,0,0,731.27165,242.21826Zm-78.24023-3.5.74023,1.46a4.42322,4.42322,0,0,1,.5,2.04v39.5h35v-39.5a4.42334,4.42334,0,0,1,.5-2.04l.74024-1.46Zm34.24023,3.5v37.5h-31v-37.5a6.27743,6.27743,0,0,0-.18017-1.5h31.36035A6.27693,6.27693,0,0,0,687.27165,242.21826Zm-78.24023-3.5.74023,1.46a4.42322,4.42322,0,0,1,.5,2.04v39.5h35v-39.5a4.42334,4.42334,0,0,1,.5-2.04l.74024-1.46Zm34.24023,3.5v37.5h-31v-37.5a6.27743,6.27743,0,0,0-.18017-1.5h31.36035A6.27693,6.27693,0,0,0,643.27165,242.21826Zm-78.24023-3.5.74023,1.46a4.42322,4.42322,0,0,1,.5,2.04v39.5h35v-39.5a4.42334,4.42334,0,0,1,.5-2.04l.74024-1.46Zm34.24023,3.5v37.5h-31v-37.5a6.27743,6.27743,0,0,0-.18017-1.5h31.36035A6.27693,6.27693,0,0,0,599.27165,242.21826Zm-78.24023-3.5.74023,1.46a4.42322,4.42322,0,0,1,.5,2.04v39.5h35v-39.5a4.42334,4.42334,0,0,1,.5-2.04l.74024-1.46Zm34.24023,3.5v37.5h-31v-37.5a6.27743,6.27743,0,0,0-.18017-1.5h31.36035A6.27693,6.27693,0,0,0,555.27165,242.21826Zm-78.24023-3.5.74023,1.46a4.42322,4.42322,0,0,1,.5,2.04v39.5h35v-39.5a4.42334,4.42334,0,0,1,.5-2.04l.74024-1.46Zm34.24023,3.5v37.5h-31v-37.5a6.27743,6.27743,0,0,0-.18017-1.5h31.36035A6.27693,6.27693,0,0,0,511.27165,242.21826Zm-78.24023-3.5.74023,1.46a4.42322,4.42322,0,0,1,.5,2.04v39.5h35v-39.5a4.42334,4.42334,0,0,1,.5-2.04l.74024-1.46Zm34.24023,3.5v37.5h-31v-37.5a6.27743,6.27743,0,0,0-.18017-1.5h31.36035A6.27693,6.27693,0,0,0,467.27165,242.21826Zm-78.24023-3.5.74023,1.46a4.42322,4.42322,0,0,1,.5,2.04v39.5h35v-39.5a4.42334,4.42334,0,0,1,.5-2.04l.74024-1.46Zm34.24023,3.5v37.5h-31v-37.5a6.27743,6.27743,0,0,0-.18017-1.5h31.36035A6.27693,6.27693,0,0,0,423.27165,242.21826Zm317.75977-3.5.74023,1.46a4.42322,4.42322,0,0,1,.5,2.04v39.5h35v-39.5a4.42334,4.42334,0,0,1,.5-2.04l.74024-1.46Zm34.24023,3.5v37.5h-31v-37.5a6.27743,6.27743,0,0,0-.18017-1.5h31.36035A6.27693,6.27693,0,0,0,775.27165,242.21826Zm-78.24023-3.5.74023,1.46a4.42322,4.42322,0,0,1,.5,2.04v39.5h35v-39.5a4.42334,4.42334,0,0,1,.5-2.04l.74024-1.46Zm34.24023,3.5v37.5h-31v-37.5a6.27743,6.27743,0,0,0-.18017-1.5h31.36035A6.27693,6.27693,0,0,0,731.27165,242.21826Zm-78.24023-3.5.74023,1.46a4.42322,4.42322,0,0,1,.5,2.04v39.5h35v-39.5a4.42334,4.42334,0,0,1,.5-2.04l.74024-1.46Zm34.24023,3.5v37.5h-31v-37.5a6.27743,6.27743,0,0,0-.18017-1.5h31.36035A6.27693,6.27693,0,0,0,687.27165,242.21826Zm-78.24023-3.5.74023,1.46a4.42322,4.42322,0,0,1,.5,2.04v39.5h35v-39.5a4.42334,4.42334,0,0,1,.5-2.04l.74024-1.46Zm34.24023,3.5v37.5h-31v-37.5a6.27743,6.27743,0,0,0-.18017-1.5h31.36035A6.27693,6.27693,0,0,0,643.27165,242.21826Zm-78.24023-3.5.74023,1.46a4.42322,4.42322,0,0,1,.5,2.04v39.5h35v-39.5a4.42334,4.42334,0,0,1,.5-2.04l.74024-1.46Zm34.24023,3.5v37.5h-31v-37.5a6.27743,6.27743,0,0,0-.18017-1.5h31.36035A6.27693,6.27693,0,0,0,599.27165,242.21826Zm-78.24023-3.5.74023,1.46a4.42322,4.42322,0,0,1,.5,2.04v39.5h35v-39.5a4.42334,4.42334,0,0,1,.5-2.04l.74024-1.46Zm34.24023,3.5v37.5h-31v-37.5a6.27743,6.27743,0,0,0-.18017-1.5h31.36035A6.27693,6.27693,0,0,0,555.27165,242.21826Zm-78.24023-3.5.74023,1.46a4.42322,4.42322,0,0,1,.5,2.04v39.5h35v-39.5a4.42334,4.42334,0,0,1,.5-2.04l.74024-1.46Zm34.24023,3.5v37.5h-31v-37.5a6.27743,6.27743,0,0,0-.18017-1.5h31.36035A6.27693,6.27693,0,0,0,511.27165,242.21826Zm-78.24023-3.5.74023,1.46a4.42322,4.42322,0,0,1,.5,2.04v39.5h35v-39.5a4.42334,4.42334,0,0,1,.5-2.04l.74024-1.46Zm34.24023,3.5v37.5h-31v-37.5a6.27743,6.27743,0,0,0-.18017-1.5h31.36035A6.27693,6.27693,0,0,0,467.27165,242.21826Zm-78.24023-3.5.74023,1.46a4.42322,4.42322,0,0,1,.5,2.04v39.5h35v-39.5a4.42334,4.42334,0,0,1,.5-2.04l.74024-1.46Zm34.24023,3.5v37.5h-31v-37.5a6.27743,6.27743,0,0,0-.18017-1.5h31.36035A6.27693,6.27693,0,0,0,423.27165,242.21826Zm317.75977-3.5.74023,1.46a4.42322,4.42322,0,0,1,.5,2.04v39.5h35v-39.5a4.42334,4.42334,0,0,1,.5-2.04l.74024-1.46Zm34.24023,3.5v37.5h-31v-37.5a6.27743,6.27743,0,0,0-.18017-1.5h31.36035A6.27693,6.27693,0,0,0,775.27165,242.21826Zm-77.5-2.04a4.42322,4.42322,0,0,1,.5,2.04v39.5h35v-39.5a4.42334,4.42334,0,0,1,.5-2.04l.74024-1.46H697.03142Zm33.68018.54a6.27693,6.27693,0,0,0-.18018,1.5v37.5h-31v-37.5a6.27743,6.27743,0,0,0-.18017-1.5Zm-77.68018-.54a4.42322,4.42322,0,0,1,.5,2.04v39.5h35v-39.5a4.42334,4.42334,0,0,1,.5-2.04l.74024-1.46H653.03142Zm33.68018.54a6.27693,6.27693,0,0,0-.18018,1.5v37.5h-31v-37.5a6.27743,6.27743,0,0,0-.18017-1.5Zm-77.68018-.54a4.42322,4.42322,0,0,1,.5,2.04v39.5h35v-39.5a4.42334,4.42334,0,0,1,.5-2.04l.74024-1.46H609.03142Zm33.68018.54a6.27693,6.27693,0,0,0-.18018,1.5v37.5h-31v-37.5a6.27743,6.27743,0,0,0-.18017-1.5Zm-77.68018-.54a4.42322,4.42322,0,0,1,.5,2.04v39.5h35v-39.5a4.42334,4.42334,0,0,1,.5-2.04l.74024-1.46H565.03142Zm33.68018.54a6.27693,6.27693,0,0,0-.18018,1.5v37.5h-31v-37.5a6.27743,6.27743,0,0,0-.18017-1.5Zm-77.68018-.54a4.42322,4.42322,0,0,1,.5,2.04v39.5h35v-39.5a4.42334,4.42334,0,0,1,.5-2.04l.74024-1.46H521.03142Zm33.68018.54a6.27693,6.27693,0,0,0-.18018,1.5v37.5h-31v-37.5a6.27743,6.27743,0,0,0-.18017-1.5Zm-77.68018-.54a4.42322,4.42322,0,0,1,.5,2.04v39.5h35v-39.5a4.42334,4.42334,0,0,1,.5-2.04l.74024-1.46H477.03142Zm33.68018.54a6.27693,6.27693,0,0,0-.18018,1.5v37.5h-31v-37.5a6.27743,6.27743,0,0,0-.18017-1.5Zm-77.68018-.54a4.42322,4.42322,0,0,1,.5,2.04v39.5h35v-39.5a4.42334,4.42334,0,0,1,.5-2.04l.74024-1.46H433.03142Zm33.68018.54a6.27693,6.27693,0,0,0-.18018,1.5v37.5h-31v-37.5a6.27743,6.27743,0,0,0-.18017-1.5Zm-77.68018-.54a4.42322,4.42322,0,0,1,.5,2.04v39.5h35v-39.5a4.42334,4.42334,0,0,1,.5-2.04l.74024-1.46H389.03142Zm33.68018.54a6.27693,6.27693,0,0,0-.18018,1.5v37.5h-31v-37.5a6.27743,6.27743,0,0,0-.18017-1.5Zm318.31982-.54a4.42322,4.42322,0,0,1,.5,2.04v39.5h35v-39.5a4.42334,4.42334,0,0,1,.5-2.04l.74024-1.46H741.03142Zm33.68018.54a6.27693,6.27693,0,0,0-.18018,1.5v37.5h-31v-37.5a6.27743,6.27743,0,0,0-.18017-1.5Zm-77.68018-.54a4.42322,4.42322,0,0,1,.5,2.04v39.5h35v-39.5a4.42334,4.42334,0,0,1,.5-2.04l.74024-1.46H697.03142Zm33.68018.54a6.27693,6.27693,0,0,0-.18018,1.5v37.5h-31v-37.5a6.27743,6.27743,0,0,0-.18017-1.5Zm-77.68018-.54a4.42322,4.42322,0,0,1,.5,2.04v39.5h35v-39.5a4.42334,4.42334,0,0,1,.5-2.04l.74024-1.46H653.03142Zm33.68018.54a6.27693,6.27693,0,0,0-.18018,1.5v37.5h-31v-37.5a6.27743,6.27743,0,0,0-.18017-1.5Zm-77.68018-.54a4.42322,4.42322,0,0,1,.5,2.04v39.5h35v-39.5a4.42334,4.42334,0,0,1,.5-2.04l.74024-1.46H609.03142Zm33.68018.54a6.27693,6.27693,0,0,0-.18018,1.5v37.5h-31v-37.5a6.27743,6.27743,0,0,0-.18017-1.5Zm-77.68018-.54a4.42322,4.42322,0,0,1,.5,2.04v39.5h35v-39.5a4.42334,4.42334,0,0,1,.5-2.04l.74024-1.46H565.03142Zm33.68018.54a6.27693,6.27693,0,0,0-.18018,1.5v37.5h-31v-37.5a6.27743,6.27743,0,0,0-.18017-1.5Zm-77.68018-.54a4.42322,4.42322,0,0,1,.5,2.04v39.5h35v-39.5a4.42334,4.42334,0,0,1,.5-2.04l.74024-1.46H521.03142Zm33.68018.54a6.27693,6.27693,0,0,0-.18018,1.5v37.5h-31v-37.5a6.27743,6.27743,0,0,0-.18017-1.5Zm-77.68018-.54a4.42322,4.42322,0,0,1,.5,2.04v39.5h35v-39.5a4.42334,4.42334,0,0,1,.5-2.04l.74024-1.46H477.03142Zm33.68018.54a6.27693,6.27693,0,0,0-.18018,1.5v37.5h-31v-37.5a6.27743,6.27743,0,0,0-.18017-1.5Zm-77.68018-.54a4.42322,4.42322,0,0,1,.5,2.04v39.5h35v-39.5a4.42334,4.42334,0,0,1,.5-2.04l.74024-1.46H433.03142Zm33.68018.54a6.27693,6.27693,0,0,0-.18018,1.5v37.5h-31v-37.5a6.27743,6.27743,0,0,0-.18017-1.5Zm-77.68018-.54a4.42322,4.42322,0,0,1,.5,2.04v39.5h35v-39.5a4.42334,4.42334,0,0,1,.5-2.04l.74024-1.46H389.03142Zm33.68018.54a6.27693,6.27693,0,0,0-.18018,1.5v37.5h-31v-37.5a6.27743,6.27743,0,0,0-.18017-1.5Zm393.81982,47H805.35173a11.031,11.031,0,0,0-10.58008-8h-6.5v-37.5a6.2516,6.2516,0,0,0-.45019-2.35,5.98916,5.98916,0,0,0-3.04981-11.15h-402a5.98915,5.98915,0,0,0-3.0498,11.15,6.25161,6.25161,0,0,0-.4502,2.35v37.5h-6.5a11.031,11.031,0,0,0-10.58007,8H349.27165a9.01357,9.01357,0,0,0-9,9v528a9.01958,9.01958,0,0,0,9,9h468a9.01309,9.01309,0,0,0,9-9v-528A9.01357,9.01357,0,0,0,817.27165,287.71826Zm7,537a7.005,7.005,0,0,1-4.56982,6.56,6.72308,6.72308,0,0,1-2.43018.44h-468a6.72307,6.72307,0,0,1-2.43017-.44,7.005,7.005,0,0,1-4.56983-6.56v-528a7.00779,7.00779,0,0,1,7-7h14.52l.16016-.8a9.03182,9.03182,0,0,1,8.81982-7.2h8.5v-39.5a4.49408,4.49408,0,0,1,.64014-2.31l.61963-1.03-1.12988-.42a3.9894,3.9894,0,0,1,1.37011-7.74h402a3.9894,3.9894,0,0,1,1.37012,7.74l-1.12988.42.61963,1.03a4.48936,4.48936,0,0,1,.64013,2.31v39.5h8.5a9.03142,9.03142,0,0,1,8.81983,7.2l.16015.8h13.52a7.00778,7.00778,0,0,1,7,7Zm-435.24023-586,.74023,1.46a4.42322,4.42322,0,0,1,.5,2.04v39.5h35v-39.5a4.42334,4.42334,0,0,1,.5-2.04l.74024-1.46Zm34.24023,3.5v37.5h-31v-37.5a6.27743,6.27743,0,0,0-.18017-1.5h31.36035A6.27693,6.27693,0,0,0,423.27165,242.21826Zm9.75977-3.5.74023,1.46a4.42322,4.42322,0,0,1,.5,2.04v39.5h35v-39.5a4.42334,4.42334,0,0,1,.5-2.04l.74024-1.46Zm34.24023,3.5v37.5h-31v-37.5a6.27743,6.27743,0,0,0-.18017-1.5h31.36035A6.27693,6.27693,0,0,0,467.27165,242.21826Zm9.75977-3.5.74023,1.46a4.42322,4.42322,0,0,1,.5,2.04v39.5h35v-39.5a4.42334,4.42334,0,0,1,.5-2.04l.74024-1.46Zm34.24023,3.5v37.5h-31v-37.5a6.27743,6.27743,0,0,0-.18017-1.5h31.36035A6.27693,6.27693,0,0,0,511.27165,242.21826Zm9.75977-3.5.74023,1.46a4.42322,4.42322,0,0,1,.5,2.04v39.5h35v-39.5a4.42334,4.42334,0,0,1,.5-2.04l.74024-1.46Zm34.24023,3.5v37.5h-31v-37.5a6.27743,6.27743,0,0,0-.18017-1.5h31.36035A6.27693,6.27693,0,0,0,555.27165,242.21826Zm9.75977-3.5.74023,1.46a4.42322,4.42322,0,0,1,.5,2.04v39.5h35v-39.5a4.42334,4.42334,0,0,1,.5-2.04l.74024-1.46Zm34.24023,3.5v37.5h-31v-37.5a6.27743,6.27743,0,0,0-.18017-1.5h31.36035A6.27693,6.27693,0,0,0,599.27165,242.21826Zm9.75977-3.5.74023,1.46a4.42322,4.42322,0,0,1,.5,2.04v39.5h35v-39.5a4.42334,4.42334,0,0,1,.5-2.04l.74024-1.46Zm34.24023,3.5v37.5h-31v-37.5a6.27743,6.27743,0,0,0-.18017-1.5h31.36035A6.27693,6.27693,0,0,0,643.27165,242.21826Zm9.75977-3.5.74023,1.46a4.42322,4.42322,0,0,1,.5,2.04v39.5h35v-39.5a4.42334,4.42334,0,0,1,.5-2.04l.74024-1.46Zm34.24023,3.5v37.5h-31v-37.5a6.27743,6.27743,0,0,0-.18017-1.5h31.36035A6.27693,6.27693,0,0,0,687.27165,242.21826Zm9.75977-3.5.74023,1.46a4.42322,4.42322,0,0,1,.5,2.04v39.5h35v-39.5a4.42334,4.42334,0,0,1,.5-2.04l.74024-1.46Zm34.24023,3.5v37.5h-31v-37.5a6.27743,6.27743,0,0,0-.18017-1.5h31.36035A6.27693,6.27693,0,0,0,731.27165,242.21826Zm9.75977-3.5.74023,1.46a4.42322,4.42322,0,0,1,.5,2.04v39.5h35v-39.5a4.42334,4.42334,0,0,1,.5-2.04l.74024-1.46Zm34.24023,3.5v37.5h-31v-37.5a6.27743,6.27743,0,0,0-.18017-1.5h31.36035A6.27693,6.27693,0,0,0,775.27165,242.21826Zm-386.24023-3.5.74023,1.46a4.42322,4.42322,0,0,1,.5,2.04v39.5h35v-39.5a4.42334,4.42334,0,0,1,.5-2.04l.74024-1.46Zm34.24023,3.5v37.5h-31v-37.5a6.27743,6.27743,0,0,0-.18017-1.5h31.36035A6.27693,6.27693,0,0,0,423.27165,242.21826Zm9.75977-3.5.74023,1.46a4.42322,4.42322,0,0,1,.5,2.04v39.5h35v-39.5a4.42334,4.42334,0,0,1,.5-2.04l.74024-1.46Zm34.24023,3.5v37.5h-31v-37.5a6.27743,6.27743,0,0,0-.18017-1.5h31.36035A6.27693,6.27693,0,0,0,467.27165,242.21826Zm9.75977-3.5.74023,1.46a4.42322,4.42322,0,0,1,.5,2.04v39.5h35v-39.5a4.42334,4.42334,0,0,1,.5-2.04l.74024-1.46Zm34.24023,3.5v37.5h-31v-37.5a6.27743,6.27743,0,0,0-.18017-1.5h31.36035A6.27693,6.27693,0,0,0,511.27165,242.21826Zm9.75977-3.5.74023,1.46a4.42322,4.42322,0,0,1,.5,2.04v39.5h35v-39.5a4.42334,4.42334,0,0,1,.5-2.04l.74024-1.46Zm34.24023,3.5v37.5h-31v-37.5a6.27743,6.27743,0,0,0-.18017-1.5h31.36035A6.27693,6.27693,0,0,0,555.27165,242.21826Zm9.75977-3.5.74023,1.46a4.42322,4.42322,0,0,1,.5,2.04v39.5h35v-39.5a4.42334,4.42334,0,0,1,.5-2.04l.74024-1.46Zm34.24023,3.5v37.5h-31v-37.5a6.27743,6.27743,0,0,0-.18017-1.5h31.36035A6.27693,6.27693,0,0,0,599.27165,242.21826Zm9.75977-3.5.74023,1.46a4.42322,4.42322,0,0,1,.5,2.04v39.5h35v-39.5a4.42334,4.42334,0,0,1,.5-2.04l.74024-1.46Zm34.24023,3.5v37.5h-31v-37.5a6.27743,6.27743,0,0,0-.18017-1.5h31.36035A6.27693,6.27693,0,0,0,643.27165,242.21826Zm9.75977-3.5.74023,1.46a4.42322,4.42322,0,0,1,.5,2.04v39.5h35v-39.5a4.42334,4.42334,0,0,1,.5-2.04l.74024-1.46Zm34.24023,3.5v37.5h-31v-37.5a6.27743,6.27743,0,0,0-.18017-1.5h31.36035A6.27693,6.27693,0,0,0,687.27165,242.21826Zm9.75977-3.5.74023,1.46a4.42322,4.42322,0,0,1,.5,2.04v39.5h35v-39.5a4.42334,4.42334,0,0,1,.5-2.04l.74024-1.46Zm34.24023,3.5v37.5h-31v-37.5a6.27743,6.27743,0,0,0-.18017-1.5h31.36035A6.27693,6.27693,0,0,0,731.27165,242.21826Zm9.75977-3.5.74023,1.46a4.42322,4.42322,0,0,1,.5,2.04v39.5h35v-39.5a4.42334,4.42334,0,0,1,.5-2.04l.74024-1.46Zm34.24023,3.5v37.5h-31v-37.5a6.27743,6.27743,0,0,0-.18017-1.5h31.36035A6.27693,6.27693,0,0,0,775.27165,242.21826Zm-386.24023-3.5.74023,1.46a4.42322,4.42322,0,0,1,.5,2.04v39.5h35v-39.5a4.42334,4.42334,0,0,1,.5-2.04l.74024-1.46Zm34.24023,3.5v37.5h-31v-37.5a6.27743,6.27743,0,0,0-.18017-1.5h31.36035A6.27693,6.27693,0,0,0,423.27165,242.21826Zm9.75977-3.5.74023,1.46a4.42322,4.42322,0,0,1,.5,2.04v39.5h35v-39.5a4.42334,4.42334,0,0,1,.5-2.04l.74024-1.46Zm34.24023,3.5v37.5h-31v-37.5a6.27743,6.27743,0,0,0-.18017-1.5h31.36035A6.27693,6.27693,0,0,0,467.27165,242.21826Zm9.75977-3.5.74023,1.46a4.42322,4.42322,0,0,1,.5,2.04v39.5h35v-39.5a4.42334,4.42334,0,0,1,.5-2.04l.74024-1.46Zm34.24023,3.5v37.5h-31v-37.5a6.27743,6.27743,0,0,0-.18017-1.5h31.36035A6.27693,6.27693,0,0,0,511.27165,242.21826Zm9.75977-3.5.74023,1.46a4.42322,4.42322,0,0,1,.5,2.04v39.5h35v-39.5a4.42334,4.42334,0,0,1,.5-2.04l.74024-1.46Zm34.24023,3.5v37.5h-31v-37.5a6.27743,6.27743,0,0,0-.18017-1.5h31.36035A6.27693,6.27693,0,0,0,555.27165,242.21826Zm9.75977-3.5.74023,1.46a4.42322,4.42322,0,0,1,.5,2.04v39.5h35v-39.5a4.42334,4.42334,0,0,1,.5-2.04l.74024-1.46Zm34.24023,3.5v37.5h-31v-37.5a6.27743,6.27743,0,0,0-.18017-1.5h31.36035A6.27693,6.27693,0,0,0,599.27165,242.21826Zm9.75977-3.5.74023,1.46a4.42322,4.42322,0,0,1,.5,2.04v39.5h35v-39.5a4.42334,4.42334,0,0,1,.5-2.04l.74024-1.46Zm34.24023,3.5v37.5h-31v-37.5a6.27743,6.27743,0,0,0-.18017-1.5h31.36035A6.27693,6.27693,0,0,0,643.27165,242.21826Zm9.75977-3.5.74023,1.46a4.42322,4.42322,0,0,1,.5,2.04v39.5h35v-39.5a4.42334,4.42334,0,0,1,.5-2.04l.74024-1.46Zm34.24023,3.5v37.5h-31v-37.5a6.27743,6.27743,0,0,0-.18017-1.5h31.36035A6.27693,6.27693,0,0,0,687.27165,242.21826Zm9.75977-3.5.74023,1.46a4.42322,4.42322,0,0,1,.5,2.04v39.5h35v-39.5a4.42334,4.42334,0,0,1,.5-2.04l.74024-1.46Zm34.24023,3.5v37.5h-31v-37.5a6.27743,6.27743,0,0,0-.18017-1.5h31.36035A6.27693,6.27693,0,0,0,731.27165,242.21826Zm9.75977-3.5.74023,1.46a4.42322,4.42322,0,0,1,.5,2.04v39.5h35v-39.5a4.42334,4.42334,0,0,1,.5-2.04l.74024-1.46Zm34.24023,3.5v37.5h-31v-37.5a6.27743,6.27743,0,0,0-.18017-1.5h31.36035A6.27693,6.27693,0,0,0,775.27165,242.21826Zm-386.24023-3.5.74023,1.46a4.42322,4.42322,0,0,1,.5,2.04v39.5h35v-39.5a4.42334,4.42334,0,0,1,.5-2.04l.74024-1.46Zm34.24023,3.5v37.5h-31v-37.5a6.27743,6.27743,0,0,0-.18017-1.5h31.36035A6.27693,6.27693,0,0,0,423.27165,242.21826Zm9.75977-3.5.74023,1.46a4.42322,4.42322,0,0,1,.5,2.04v39.5h35v-39.5a4.42334,4.42334,0,0,1,.5-2.04l.74024-1.46Zm34.24023,3.5v37.5h-31v-37.5a6.27743,6.27743,0,0,0-.18017-1.5h31.36035A6.27693,6.27693,0,0,0,467.27165,242.21826Zm9.75977-3.5.74023,1.46a4.42322,4.42322,0,0,1,.5,2.04v39.5h35v-39.5a4.42334,4.42334,0,0,1,.5-2.04l.74024-1.46Zm34.24023,3.5v37.5h-31v-37.5a6.27743,6.27743,0,0,0-.18017-1.5h31.36035A6.27693,6.27693,0,0,0,511.27165,242.21826Zm9.75977-3.5.74023,1.46a4.42322,4.42322,0,0,1,.5,2.04v39.5h35v-39.5a4.42334,4.42334,0,0,1,.5-2.04l.74024-1.46Zm34.24023,3.5v37.5h-31v-37.5a6.27743,6.27743,0,0,0-.18017-1.5h31.36035A6.27693,6.27693,0,0,0,555.27165,242.21826Zm9.75977-3.5.74023,1.46a4.42322,4.42322,0,0,1,.5,2.04v39.5h35v-39.5a4.42334,4.42334,0,0,1,.5-2.04l.74024-1.46Zm34.24023,3.5v37.5h-31v-37.5a6.27743,6.27743,0,0,0-.18017-1.5h31.36035A6.27693,6.27693,0,0,0,599.27165,242.21826Zm9.75977-3.5.74023,1.46a4.42322,4.42322,0,0,1,.5,2.04v39.5h35v-39.5a4.42334,4.42334,0,0,1,.5-2.04l.74024-1.46Zm34.24023,3.5v37.5h-31v-37.5a6.27743,6.27743,0,0,0-.18017-1.5h31.36035A6.27693,6.27693,0,0,0,643.27165,242.21826Zm9.75977-3.5.74023,1.46a4.42322,4.42322,0,0,1,.5,2.04v39.5h35v-39.5a4.42334,4.42334,0,0,1,.5-2.04l.74024-1.46Zm34.24023,3.5v37.5h-31v-37.5a6.27743,6.27743,0,0,0-.18017-1.5h31.36035A6.27693,6.27693,0,0,0,687.27165,242.21826Zm9.75977-3.5.74023,1.46a4.42322,4.42322,0,0,1,.5,2.04v39.5h35v-39.5a4.42334,4.42334,0,0,1,.5-2.04l.74024-1.46Zm34.24023,3.5v37.5h-31v-37.5a6.27743,6.27743,0,0,0-.18017-1.5h31.36035A6.27693,6.27693,0,0,0,731.27165,242.21826Zm9.75977-3.5.74023,1.46a4.42322,4.42322,0,0,1,.5,2.04v39.5h35v-39.5a4.42334,4.42334,0,0,1,.5-2.04l.74024-1.46Zm34.24023,3.5v37.5h-31v-37.5a6.27743,6.27743,0,0,0-.18017-1.5h31.36035A6.27693,6.27693,0,0,0,775.27165,242.21826Z" transform="translate(-95 -64.71826)" fill="#3f3d56"/><path d="M507.92378,413.71826H434.18054a5.86472,5.86472,0,0,1-5.85811-5.85811V368.57637a5.86472,5.86472,0,0,1,5.85811-5.85811h73.74324a5.86466,5.86466,0,0,1,5.85811,5.85811v39.28378A5.86466,5.86466,0,0,1,507.92378,413.71826Z" transform="translate(-95 -64.71826)" fill="#7c6f88"/><path d="M620.14328,413.71826H546.4a5.86472,5.86472,0,0,1-5.85811-5.85811V368.57637A5.86472,5.86472,0,0,1,546.4,362.71826h73.74325a5.86466,5.86466,0,0,1,5.8581,5.85811v39.28378A5.86466,5.86466,0,0,1,620.14328,413.71826Z" transform="translate(-95 -64.71826)" fill="#7c6f88"/><path d="M732.36277,413.71826H658.61952a5.86471,5.86471,0,0,1-5.8581-5.85811V368.57637a5.86471,5.86471,0,0,1,5.8581-5.85811h73.74325a5.86466,5.86466,0,0,1,5.85811,5.85811v39.28378A5.86466,5.86466,0,0,1,732.36277,413.71826Z" transform="translate(-95 -64.71826)" fill="#7c6f88"/><path d="M507.92378,544.71826H434.18054a5.86472,5.86472,0,0,1-5.85811-5.85811V499.57637a5.86472,5.86472,0,0,1,5.85811-5.85811h73.74324a5.86466,5.86466,0,0,1,5.85811,5.85811v39.28378A5.86466,5.86466,0,0,1,507.92378,544.71826Z" transform="translate(-95 -64.71826)" fill="#7c6f88"/><path d="M620.14328,544.71826H546.4a5.86472,5.86472,0,0,1-5.85811-5.85811V499.57637A5.86472,5.86472,0,0,1,546.4,493.71826h73.74325a5.86466,5.86466,0,0,1,5.8581,5.85811v39.28378A5.86466,5.86466,0,0,1,620.14328,544.71826Z" transform="translate(-95 -64.71826)" fill="#7c6f88"/><path d="M732.36277,544.71826H658.61952a5.86471,5.86471,0,0,1-5.8581-5.85811V499.57637a5.86471,5.86471,0,0,1,5.8581-5.85811h73.74325a5.86466,5.86466,0,0,1,5.85811,5.85811v39.28378A5.86466,5.86466,0,0,1,732.36277,544.71826Z" transform="translate(-95 -64.71826)" fill="#7c6f88"/><path d="M507.92378,675.71826H434.18054a5.86472,5.86472,0,0,1-5.85811-5.85811V630.57637a5.86472,5.86472,0,0,1,5.85811-5.85811h73.74324a5.86466,5.86466,0,0,1,5.85811,5.85811v39.28378A5.86466,5.86466,0,0,1,507.92378,675.71826Z" transform="translate(-95 -64.71826)" fill="#7c6f88"/><path d="M620.14328,675.71826H546.4a5.86472,5.86472,0,0,1-5.85811-5.85811V630.57637A5.86472,5.86472,0,0,1,546.4,624.71826h73.74325a5.86466,5.86466,0,0,1,5.8581,5.85811v39.28378A5.86466,5.86466,0,0,1,620.14328,675.71826Z" transform="translate(-95 -64.71826)" fill="#7c6f88"/><path d="M732.36277,675.71826H658.61952a5.86471,5.86471,0,0,1-5.8581-5.85811V630.57637a5.86471,5.86471,0,0,1,5.8581-5.85811h73.74325a5.86466,5.86466,0,0,1,5.85811,5.85811v39.28378A5.86466,5.86466,0,0,1,732.36277,675.71826Z" transform="translate(-95 -64.71826)" fill="#7c6f88"/><path d="M495.98528,418.75879H410.55791a7.79534,7.79534,0,0,1-7.78626-7.78662V365.46436a7.79534,7.79534,0,0,1,7.78626-7.78663h85.42737a7.79536,7.79536,0,0,1,7.78637,7.78663v45.50781A7.79536,7.79536,0,0,1,495.98528,418.75879Zm-85.42737-59.08106a5.7929,5.7929,0,0,0-5.78626,5.78663v45.50781a5.79289,5.79289,0,0,0,5.78626,5.78662h85.42737a5.79291,5.79291,0,0,0,5.78637-5.78662V365.46436a5.79291,5.79291,0,0,0-5.78637-5.78663Z" transform="translate(-95 -64.71826)" fill="#3f3d56"/><path d="M625.98528,418.75879H540.558a7.79536,7.79536,0,0,1-7.78638-7.78662V365.46436a7.79537,7.79537,0,0,1,7.78638-7.78663h85.42725a7.79536,7.79536,0,0,1,7.78637,7.78663v45.50781A7.79536,7.79536,0,0,1,625.98528,418.75879ZM540.558,359.67773a5.79292,5.79292,0,0,0-5.78638,5.78663v45.50781a5.79291,5.79291,0,0,0,5.78638,5.78662h85.42725a5.79291,5.79291,0,0,0,5.78637-5.78662V365.46436a5.79291,5.79291,0,0,0-5.78637-5.78663Z" transform="translate(-95 -64.71826)" fill="#3f3d56"/><path d="M755.98528,418.75879H670.558a7.79536,7.79536,0,0,1-7.78638-7.78662V365.46436a7.79537,7.79537,0,0,1,7.78638-7.78663h85.42725a7.79536,7.79536,0,0,1,7.78637,7.78663v45.50781A7.79536,7.79536,0,0,1,755.98528,418.75879ZM670.558,359.67773a5.79292,5.79292,0,0,0-5.78638,5.78663v45.50781a5.79291,5.79291,0,0,0,5.78638,5.78662h85.42725a5.79291,5.79291,0,0,0,5.78637-5.78662V365.46436a5.79291,5.79291,0,0,0-5.78637-5.78663Z" transform="translate(-95 -64.71826)" fill="#3f3d56"/><path d="M495.98528,549.75879H410.55791a7.79534,7.79534,0,0,1-7.78626-7.78662V496.46436a7.79534,7.79534,0,0,1,7.78626-7.78663h85.42737a7.79536,7.79536,0,0,1,7.78637,7.78663v45.50781A7.79536,7.79536,0,0,1,495.98528,549.75879Zm-85.42737-59.08106a5.7929,5.7929,0,0,0-5.78626,5.78663v45.50781a5.79289,5.79289,0,0,0,5.78626,5.78662h85.42737a5.79291,5.79291,0,0,0,5.78637-5.78662V496.46436a5.79291,5.79291,0,0,0-5.78637-5.78663Z" transform="translate(-95 -64.71826)" fill="#3f3d56"/><path d="M625.98528,549.75879H540.558a7.79536,7.79536,0,0,1-7.78638-7.78662V496.46436a7.79537,7.79537,0,0,1,7.78638-7.78663h85.42725a7.79536,7.79536,0,0,1,7.78637,7.78663v45.50781A7.79536,7.79536,0,0,1,625.98528,549.75879ZM540.558,490.67773a5.79292,5.79292,0,0,0-5.78638,5.78663v45.50781a5.79291,5.79291,0,0,0,5.78638,5.78662h85.42725a5.79291,5.79291,0,0,0,5.78637-5.78662V496.46436a5.79291,5.79291,0,0,0-5.78637-5.78663Z" transform="translate(-95 -64.71826)" fill="#3f3d56"/><path d="M755.98528,549.75879H670.558a7.79536,7.79536,0,0,1-7.78638-7.78662V496.46436a7.79537,7.79537,0,0,1,7.78638-7.78663h85.42725a7.79536,7.79536,0,0,1,7.78637,7.78663v45.50781A7.79536,7.79536,0,0,1,755.98528,549.75879ZM670.558,490.67773a5.79292,5.79292,0,0,0-5.78638,5.78663v45.50781a5.79291,5.79291,0,0,0,5.78638,5.78662h85.42725a5.79291,5.79291,0,0,0,5.78637-5.78662V496.46436a5.79291,5.79291,0,0,0-5.78637-5.78663Z" transform="translate(-95 -64.71826)" fill="#3f3d56"/><path d="M495.98528,680.75879H410.55791a7.79534,7.79534,0,0,1-7.78626-7.78662V627.46436a7.79534,7.79534,0,0,1,7.78626-7.78663h85.42737a7.79536,7.79536,0,0,1,7.78637,7.78663v45.50781A7.79536,7.79536,0,0,1,495.98528,680.75879Zm-85.42737-59.08106a5.7929,5.7929,0,0,0-5.78626,5.78663v45.50781a5.79289,5.79289,0,0,0,5.78626,5.78662h85.42737a5.79291,5.79291,0,0,0,5.78637-5.78662V627.46436a5.79291,5.79291,0,0,0-5.78637-5.78663Z" transform="translate(-95 -64.71826)" fill="#3f3d56"/><path d="M625.98528,680.75879H540.558a7.79536,7.79536,0,0,1-7.78638-7.78662V627.46436a7.79537,7.79537,0,0,1,7.78638-7.78663h85.42725a7.79536,7.79536,0,0,1,7.78637,7.78663v45.50781A7.79536,7.79536,0,0,1,625.98528,680.75879ZM540.558,621.67773a5.79292,5.79292,0,0,0-5.78638,5.78663v45.50781a5.79291,5.79291,0,0,0,5.78638,5.78662h85.42725a5.79291,5.79291,0,0,0,5.78637-5.78662V627.46436a5.79291,5.79291,0,0,0-5.78637-5.78663Z" transform="translate(-95 -64.71826)" fill="#3f3d56"/><path d="M755.98528,680.75879H670.558a7.79536,7.79536,0,0,1-7.78638-7.78662V627.46436a7.79537,7.79537,0,0,1,7.78638-7.78663h85.42725a7.79536,7.79536,0,0,1,7.78637,7.78663v45.50781A7.79536,7.79536,0,0,1,755.98528,680.75879ZM670.558,621.67773a5.79292,5.79292,0,0,0-5.78638,5.78663v45.50781a5.79291,5.79291,0,0,0,5.78638,5.78662h85.42725a5.79291,5.79291,0,0,0,5.78637-5.78662V627.46436a5.79291,5.79291,0,0,0-5.78637-5.78663Z" transform="translate(-95 -64.71826)" fill="#3f3d56"/><path d="M1104,835.21826H96a1,1,0,0,1,0-2H1104a1,1,0,0,1,0,2Z" transform="translate(-95 -64.71826)" fill="#3f3d56"/><path d="M633.77165,738.42866a8.60719,8.60719,0,0,0-8.5-8.7104h-42v103.5h50.5Z" transform="translate(-95 -64.71826)" fill="#3f3d56"/><path d="M584.27165,832.21826h-52.5v-93.5a9.51081,9.51081,0,0,1,9.5-9.5h43Zm-50.5-2h48.5v-99h-41a7.50836,7.50836,0,0,0-7.5,7.5Z" transform="translate(-95 -64.71826)" fill="#3f3d56"/><circle cx="443.27165" cy="720" r="3" fill="#3f3d56"/></svg>